<svg xmlns="http://www.w3.org/2000/svg" width="410" height="404" viewBox="0 0 410 404" fill="none">
  <path d="M399.641 59.5253L215.643 388.545C211.844 395.338 202.084 395.368 198.239 388.601L10.5817 59.531C6.38087 52.1896 12.6802 43.2665 21.0281 44.7586L205.223 77.6824C206.398 77.8924 207.601 77.8904 208.776 77.6763L389.119 44.8058C397.439 43.2894 403.768 52.1434 399.627 59.5019L399.641 59.5253Z" fill="url(#paint0_linear)"/>
  <path d="M292.965 1.5744L156.801 28.2557C154.563 28.6943 152.907 30.5903 152.771 32.8788L144.291 175.236C144.071 178.997 147.661 181.794 151.272 180.74L188.42 169.873C192.294 168.743 195.931 172.048 195.091 175.964L183.973 227.982C183.105 232.025 186.958 235.497 190.881 234.227L212.54 227.212C216.464 225.942 220.317 229.414 219.449 233.457L201.042 319.612C199.827 325.317 207.486 328.258 210.421 323.351L212.5 319.915L323.883 102.012C325.862 98.0686 322.54 93.5448 318.227 94.3693L279.889 101.653C275.923 102.401 272.698 98.6432 273.863 94.7806L300.509 6.89589C301.674 3.03331 298.449 -0.724791 294.483 0.0229618L292.965 1.5744Z" fill="url(#paint1_linear)"/>
  <defs>
    <linearGradient id="paint0_linear" x1="6.00017" y1="32.9999" x2="235" y2="344" gradientUnits="userSpaceOnUse">
      <stop stop-color="#41D1FF"/>
      <stop offset="1" stop-color="#BD34FE"/>
    </linearGradient>
    <linearGradient id="paint1_linear" x1="194.651" y1="8.81818" x2="236.076" y2="292.989" gradientUnits="userSpaceOnUse">
      <stop stop-color="#FFEA83"/>
      <stop offset="0.0833333" stop-color="#FFDD35"/>
      <stop offset="1" stop-color="#FFA800"/>
    </linearGradient>
  </defs>
</svg>


